Coordinates
version=1
nRows=19
nColumns=36
inDegrees=yes

Units are S.I. units (second, meters, Newtons, ...)
If the header above contains a line with 'inDegrees', this indicates whether rotational values are in degrees (yes) or radians (no).

endheader
time	pelvis_tilt	pelvis_list	pelvis_rotation	pelvis_tx	pelvis_ty	pelvis_tz	hip_flexion_r	hip_adduction_r	hip_rotation_r	knee_angle_r	knee_angle_r_beta	ankle_angle_r	subtalar_angle_r	mtp_angle_r	hip_flexion_l	hip_adduction_l	hip_rotation_l	knee_angle_l	knee_angle_l_beta	ankle_angle_l	subtalar_angle_l	mtp_angle_l	lumbar_extension	lumbar_bending	lumbar_rotation	arm_flex_r	arm_add_r	arm_rot_r	elbow_flex_r	pro_sup_r	arm_flex_l	arm_add_l	arm_rot_l	elbow_flex_l	pro_sup_l
      3.66666670	     -0.36064913	      0.99478669	      2.14664922	      0.35397170	      0.92283967	     -0.00901423	     12.83110397	     -3.80483133	     -1.92287177	     35.11145657	      0.61281052	      1.92128740	    -18.99617779	     -7.49999987	     14.37289224	     -1.29299714	      7.77335988	     38.61643238	      0.67398389	      1.77862959	    -15.70650196	     -7.49999987	     -0.82700202	     -2.76769495	      1.57187247	     80.19403521	    -26.14749216	     41.49538282	     82.85122863	     82.06325189	     84.62889027	    -36.03722686	     46.35672505	     64.18132564	     71.01175822
      3.67083330	     -0.47382614	      0.88799627	      1.69914208	      0.35091436	      0.91952758	     -0.00800200	     13.48304473	     -3.54080550	     -1.70950602	     36.04155021	      0.62904372	      3.83620960	    -20.15950291	     -7.49999987	     14.29042373	     -1.29932590	      7.80107347	     38.67248863	      0.67496226	      4.29143712	    -16.35985590	     -7.49999987	     -0.96583246	     -2.91867996	      1.76590580	     78.03645933	    -25.71462668	     39.55746336	     83.35365370	     82.25343294	     83.04482164	    -36.67947450	     44.73673777	     64.59216642	     70.97661658
      3.67500000	     -0.11116907	      0.53572496	      1.37402408	      0.34852278	      0.91074092	     -0.00746894	     13.41197624	     -3.05376874	     -1.50856686	     36.72541077	      0.64097934	      5.73834457	    -21.45870962	     -7.49999987	     13.87491433	     -1.55180990	      8.13828815	     38.95335686	      0.67986433	      6.41068870	    -18.04333107	     -7.49999987	     -1.57710821	     -2.90662289	      1.83926724	     76.69040559	    -25.91589886	     39.54887233	     83.35729213	     82.54404856	     82.26269052	    -37.18561962	     44.69592814	     64.47355204	     71.09681930
      3.67916670	     -0.73192136	      0.46586605	      1.07701493	      0.34724300	      0.90302292	     -0.00592796	     14.44730136	     -2.77124026	     -0.98267583	     37.75010303	      0.65886359	      9.13201113	    -20.97597599	     -7.49999987	     14.55085177	     -1.65331083	      8.24110335	     39.31974331	      0.68625898	      8.98907442	    -18.49960708	     -7.49999987	     -1.18750369	     -3.09648855	      1.74378091	     74.73509967	    -25.58594813	     37.98982765	     83.84097748	     82.24317135	     80.96815164	    -37.91649796	     43.93550032	     65.12331093	     70.79765619
      3.68333330	     -0.82352321	      0.41873735	      0.94290125	      0.34864250	      0.89764538	     -0.00653938	     14.50623421	     -2.58902466	     -0.42417729	     38.25115039	      0.66760852	     11.56577610	    -20.33115811	     -7.49999987	     14.29008347	     -1.60006882	      8.70724635	     39.31823701	      0.68623269	     11.27954692	    -19.37130991	     -7.49999987	     -1.31117882	     -3.05042395	      1.61520189	     72.98005390	    -25.36381825	     36.80879765	     84.22638997	     82.31514380	     79.30691540	    -38.38694063	     42.89791578	     65.25664777	     70.75377788
      3.68750000	     -0.77916884	      0.49219431	      1.18428412	      0.34773352	      0.89057257	     -0.00602445	     14.22733682	     -2.44678167	      0.23565954	     38.28701030	      0.66823439	     13.15817508	    -21.37279117	     -7.49999987	     14.01631162	     -1.45861213	      9.21757261	     39.23321379	      0.68474876	     12.65487429	    -20.60713951	     -7.49999987	     -1.72607770	     -3.16336984	      1.45769087	     71.81526509	    -25.54342814	     36.93685825	     84.27888334	     82.56241464	     78.40103169	    -38.84330177	     43.01189665	     64.92655137	     70.82625875
      3.69166670	     -1.37979051	      0.79847473	      1.59271846	      0.34742644	      0.88126912	     -0.00480650	     15.10406542	     -2.67799526	      0.66221597	     39.50143089	      0.68943003	     16.73139982	    -19.90136684	     -7.49999987	     14.70406812	     -1.06392451	      9.69140823	     39.72330430	      0.69330245	     15.65138698	    -19.84538674	     -7.49999987	     -1.35319860	     -3.48505125	      1.00989298	     69.90343399	    -24.90907456	     35.34697960	     84.39417348	     84.39130002	     76.83084731	    -38.63672424	     40.92321420	     63.98234094	     70.44140875
      3.69583330	     -1.82212749	      1.09508954	      2.14904808	      0.34593374	      0.87616696	     -0.00657562	     15.69836694	     -2.92111829	      0.96712567	     40.33078946	      0.70390507	     19.25382764	    -19.97466745	     -7.49999987	     15.40261775	     -0.61191287	     10.31272318	     40.39912081	      0.70509767	     17.88954755	    -18.84084323	     -7.49999987	     -1.30524673	     -3.64131806	      0.71289040	     68.26339065	    -24.86628582	     34.85925632	     85.02423849	     84.68955622	     75.29172302	    -38.37614309	     39.96062556	     63.09750891	     70.22950778
      3.70000000	     -1.94010550	      1.25366322	      2.64200093	      0.34534310	      0.87988345	     -0.00659974	     15.69917501	     -2.95715283	      1.42498462	     40.45046144	      0.70599374	     19.99840560	    -20.74681887	     -7.49999987	     15.40801259	     -0.29402235	     11.30434150	     40.29943257	      0.70335779	     18.78657443	    -18.96900332	     -7.49999987	     -1.64219850	     -3.45116398	      0.54028763	     66.20525802	    -24.81021183	     34.64249788	     85.92868650	     84.24884274	     72.87759625	    -37.86148616	     38.29517900	     62.13119237	     69.61766509
      3.70416670	     -1.83633961	      1.40545226	      3.03317658	      0.34329261	      0.87439316	     -0.00607373	     16.05938335	     -2.90712549	      1.89284401	     41.72775246	      0.72828667	     20.72562790	    -21.76418047	     -7.49999987	     15.62890186	     -0.02063183	     11.78155444	     41.10874411	      0.71748294	     20.41942568	    -18.34707489	     -7.49999987	     -2.42805388	     -3.29730505	      0.39165421	     64.39644605	    -24.83831031	     34.19892188	     86.55304583	     83.68390388	     70.48304401	    -37.28097540	     35.86543910	     61.82144780	     68.86445331
      3.70833330	     -1.85299819	      1.52919795	      3.20214375	      0.33930320	      0.86318451	     -0.00305733	     17.32168836	     -2.70957852	      2.61950120	     44.13872065	      0.77036600	     22.15365925	    -23.30184202	     -7.49999987	     16.70048411	      0.03115945	     12.07337626	     43.08436668	      0.75196405	     22.48013722	    -17.60746167	     -7.49999987	     -3.17135852	     -3.29380267	      0.05002327	     63.27284353	    -24.55149312	     33.87091142	     86.74037083	     83.78429135	     69.44544682	    -36.98039367	     35.06612671	     61.00626755	     68.44199324
      3.71250000	     -1.83950236	      1.60610230	      3.21683782	      0.33926609	      0.85632334	     -0.00457191	     18.70008213	     -2.56416723	      3.20348500	     46.87402377	      0.81810605	     23.13821017	    -24.40870172	     -7.49999987	     17.78198458	      0.26210335	     12.37189796	     45.28370787	      0.79034980	     24.08718641	    -17.43181076	     -7.49999987	     -3.54811756	     -3.32874796	     -0.09657457	     61.87409873	    -24.64422018	     33.77681446	     86.72660944	     83.82743955	     67.99587375	    -36.50699314	     34.38554677	     60.29619841	     67.99313461
      3.71666670	     -2.06623436	      1.64571805	      3.21912832	      0.33522805	      0.85189533	     -0.00493897	     20.49167716	     -2.47856848	      3.75701049	     49.51638938	      0.86422403	     23.94075784	    -25.12065969	     -7.49999987	     19.35267098	      0.50983222	     12.43379933	     47.65468114	      0.83173109	     24.94478766	    -17.89963119	     -7.49999987	     -3.73833216	     -3.29946749	     -0.37782321	     60.61120693	    -24.51426855	     33.78713084	     86.64600766	     82.33046103	     66.30167505	    -36.67836368	     33.81324902	     60.31850794	     67.13670343
      3.72083330	     -2.64424115	      1.60823278	      3.14234025	      0.33328994	      0.84641552	     -0.00641524	     22.30207629	     -2.39258280	      4.10072512	     51.34967717	      0.89622094	     23.96930329	    -25.68739095	     -7.49999987	     21.10067676	      0.79600226	     12.45324723	     49.54212816	      0.86467325	     25.10467878	    -18.39156193	     -7.49999987	     -3.29672704	     -3.00986397	     -0.33234458	     58.85445473	    -24.45082714	     34.09201531	     86.72800940	     80.96537127	     63.90463597	    -36.09693947	     32.04117947	     59.40615153	     65.95010811
      3.72500000	     -3.02525496	      1.53725016	      2.94595715	      0.33183647	      0.84347556	     -0.00606002	     23.74922071	     -2.17997864	      4.40929116	     52.82862799	      0.92203350	     24.00278827	    -26.02389599	     -7.49999987	     22.72448319	      0.92855186	     12.23306860	     51.58176453	      0.90027163	     25.14826150	    -18.84094553	     -7.49999987	     -3.29437475	     -2.86876408	     -0.42855282	     57.02783572	    -24.23101839	     34.20883350	     86.71987925	     79.79028109	     61.67441968	    -35.62678509	     30.98102384	     59.23330028	     65.04811162
      3.72916670	     -3.07510402	      1.31324816	      2.65193167	      0.32922113	      0.84530210	     -0.00556859	     24.47329307	     -1.86806747	      4.48636229	     53.34907789	      0.93111706	     23.62004001	    -25.80586148	     -7.49999987	     23.58365312	      0.87800959	     12.27534279	     52.76320221	      0.92089160	     24.47959425	    -19.85534804	     -7.49999987	     -3.68780420	     -2.62948395	     -0.23431621	     54.61200163	    -24.00566011	     34.04280131	     86.47544741	     79.26904653	     59.18534186	    -34.71961115	     28.62171072	     58.30419303	     63.80207633
      3.73333330	     -3.15700499	      1.12603055	      2.43852139	      0.32787349	      0.83895191	     -0.00785589	     25.53150629	     -1.77511554	      4.47576689	     54.79863260	      0.95641656	     23.20712425	    -26.21407681	     -7.49999987	     24.69108279	      0.95549220	     12.15285886	     54.39087174	      0.94929979	     24.21994040	    -20.43313159	     -7.49999987	     -3.95775772	     -2.15301346	     -0.18162985	     52.46633530	    -23.91746726	     33.52502422	     86.32974914	     81.41636899	     55.80993673	    -34.25668539	     25.51600720	     58.55067510	     60.56269527
      3.73750000	     -3.13279058	      1.00917272	      2.28146824	      0.32937287	      0.83458212	     -0.00839460	     26.18574374	     -1.79941479	      4.32673230	     55.90713111	      0.97576351	     23.29270673	    -26.17581017	     -7.49999987	     25.43699749	      1.07107090	     12.28573155	     56.15229547	      0.98004244	     24.40454838	    -21.02221747	     -7.49999987	     -4.16196665	     -1.78705509	     -0.15778620	     49.67244395	    -24.56566879	     32.80796882	     86.66124367	     80.28737559	     52.95518806	    -33.59864157	     23.43333287	     57.58138162	     59.91929059
      3.74166670	     -3.04447083	      0.98285234	      2.44962880	      0.32610897	      0.83386804	     -0.00741720	     26.52122292	     -1.83306099	      4.12017229	     56.62681484	      0.98832436	     23.53327574	    -26.11966463	     -7.49999987	     26.11500518	      1.19737802	     12.29810452	     57.28984414	      0.99989641	     24.53648263	    -21.04451104	     -7.49999987	     -4.70740825	     -1.49429341	     -0.65822546	     47.62230681	    -24.81535326	     32.45563427	     86.70311281	     79.35191521	     50.78590419	    -33.42489428	     22.80783376	     56.69385026	     59.64113903
